<svg width="401" height="431" viewBox="0 0 401 431" fill="none" xmlns="http://www.w3.org/2000/svg">
<path d="M351.9 222.8C337.2 201.3 310.1 188.9 284.2 191.7C290.6 204.3 302.5 215.3 314.5 219C326.5 222.8 339.3 222.8 351.9 222.8Z" fill="#EBEBEB"/>
<path d="M283.4 201.6C276.4 193.8 266.8 188.3 256.4 186.4C257.1 196.1 265 206.6 271.8 213.4C278.7 220.3 287.1 225.3 295.5 230.1C294.7 219.6 290.4 209.4 283.4 201.6Z" fill="#EBEBEB"/>
<path d="M323.4 210.5C295.4 193.9 264.4 182.2 232.4 176.3" stroke="#E0E0E0" stroke-miterlimit="10" stroke-linecap="round" stroke-linejoin="round"/>
<path d="M249.5 180.4C263.8 191.5 276.2 204.2 287.6 218.3" stroke="#E0E0E0" stroke-miterlimit="10" stroke-linecap="round" stroke-linejoin="round"/>
<path d="M275.6 177.6C267.3 180.3 258 180.2 249.8 177.3C254.4 170.6 264.4 166.4 272.2 164.3C280 162.2 288.2 162.1 296.3 162.1C291.4 169.3 284 174.9 275.6 177.6Z" fill="#EBEBEB"/>
<path d="M305.3 187C297.6 189.5 289.1 189.4 281.4 186.7C285.6 180.5 294.9 176.6 302.1 174.7C309.3 172.8 316.9 172.7 324.4 172.7C319.9 179.3 313 184.5 305.3 187Z" fill="#EBEBEB"/>
<path d="M243.3 178.5C258.3 176.5 271.5 172.7 285.6 167.3" stroke="#E0E0E0" stroke-miterlimit="10" stroke-linecap="round" stroke-linejoin="round"/>
<path d="M303.2 180.8C294.1 183.5 284.9 185.8 275.6 187.9" stroke="#E0E0E0" stroke-miterlimit="10" stroke-linecap="round" stroke-linejoin="round"/>
<path d="M66 238.7C82.9 235.1 97.4 221.6 102.2 205C92.8 205.7 83.1 210.3 77.8 216.7C72.4 223.1 69.2 230.9 66 238.7Z" fill="#EBEBEB"/>
<path d="M96.3 202C102.9 199.7 108.7 195.1 112.5 189.3C106.4 187.3 97.9 189.5 92 191.9C86.1 194.4 80.8 198.3 75.7 202.2C82.4 204.4 89.7 204.3 96.3 202Z" fill="#EBEBEB"/>
<path d="M80.7 224.3C98 211.3 113 195.2 124.7 177.1" stroke="#E0E0E0" stroke-miterlimit="10" stroke-linecap="round" stroke-linejoin="round"/>
<path d="M117.9 186.5C107.4 192.5 96.6 196.9 85 200.3" stroke="#E0E0E0" stroke-miterlimit="10" stroke-linecap="round" stroke-linejoin="round"/>
<path d="M113 203.3C113.4 197.5 115.8 191.9 119.7 187.5C122.7 192 122.7 199.3 122 204.6C121.3 209.9 119.3 215 117.2 219.9C114.1 215 112.6 209.1 113 203.3Z" fill="#EBEBEB"/>
<path d="M99.8 219.2C100.2 213.8 102.4 208.6 106 204.6C108.7 208.7 108.8 215.5 108.1 220.4C107.4 225.3 105.6 230 103.7 234.6C100.8 230 99.4 224.5 99.8 219.2Z" fill="#EBEBEB"/>
<path d="M120.6 183.2C118 192.9 117 202 116.8 212" stroke="#E0E0E0" stroke-miterlimit="10" stroke-linecap="round" stroke-linejoin="round"/>
<path d="M104.1 219.4C104.8 213.1 105.6 206.9 106.8 200.6" stroke="#E0E0E0" stroke-miterlimit="10" stroke-linecap="round" stroke-linejoin="round"/>
<path d="M28.7 78.7002C39 96.5002 59.5 108 80 107.3C75.8 97.0002 67.1 87.6002 57.8 84.0002C48.6 80.3002 38.5 79.5002 28.7 78.7002Z" fill="#EBEBEB"/>
<path d="M81.3 99.6C86.3 106.2 93.6 111.1 101.6 113.3C101.6 105.6 96.1 96.9 91.1 91.1C86.1 85.3 79.8 80.8 73.5 76.5C73.4 84.7 76.2 93 81.3 99.6Z" fill="#EBEBEB"/>
<path d="M50.3 90.1001C71.3 104.9 95 116 119.8 122.6" stroke="#E0E0E0" stroke-miterlimit="10" stroke-linecap="round" stroke-linejoin="round"/>
<path d="M106.6 118.4C96 108.7 87 98.0002 79 86.2002" stroke="#E0E0E0" stroke-miterlimit="10" stroke-linecap="round" stroke-linejoin="round"/>
<path d="M85.9 119C92.6 117.4 99.9 118 106.2 120.8C102.2 125.8 94 128.5 87.7 129.7C81.4 130.9 75 130.5 68.6 129.9C73 124.5 79.1 120.6 85.9 119Z" fill="#EBEBEB"/>
<path d="M63.1 109.8C69.3 108.3 76 108.9 81.9 111.5C78.2 116.1 70.6 118.6 64.8 119.7C59 120.8 53 120.4 47.2 119.9C51.2 114.9 56.9 111.3 63.1 109.8Z" fill="#EBEBEB"/>
<path d="M111.3 120.2C99.4 120.9 88.8 123 77.3 126.4" stroke="#E0E0E0" stroke-miterlimit="10" stroke-linecap="round" stroke-linejoin="round"/>
<path d="M64.4 114.7C71.7 113.1 79.1 111.9 86.6 110.8" stroke="#E0E0E0" stroke-miterlimit="10" stroke-linecap="round" stroke-linejoin="round"/>
<path d="M16.8 344.3H0.700012V344.6H16.8V344.3Z" fill="#E0E0E0"/>
<path d="M172.9 341.6H119.4V341.9H172.9V341.6Z" fill="#E0E0E0"/>
<path d="M53.9 353.6H17.7V353.9H53.9V353.6Z" fill="#E0E0E0"/>
<path d="M370.6 341.5H327.4V341.8H370.6V341.5Z" fill="#E0E0E0"/>
<path d="M385.8 341.5H379.5V341.8H385.8V341.5Z" fill="#E0E0E0"/>
<path d="M319.1 347.7H265.2V348H319.1V347.7Z" fill="#E0E0E0"/>
<path d="M380 15.7002H311.5V144.8H380V15.7002Z" fill="#E6E6E6"/>
<path d="M376.5 15.7002H296.1V144.8H376.5V15.7002Z" fill="#F0F0F0"/>
<path d="M364.3 27.2002H308.4V133.3H364.3V27.2002Z" fill="white"/>
<path d="M333.6 52.1004C327.6 60.0004 319.5 78.4004 330.6 85.7004C334.9 88.5004 339.9 87.0004 343.6 84.0004C346.9 81.4004 351.4 76.2004 348.7 71.8004C346.4 68.0004 341.2 68.7004 337.9 70.5004C332.9 73.3004 329.7 78.5004 328.1 83.9004C325.1 94.0004 325.7 112.8 338.4 115.9C340.3 116.4 341.1 113.5 339.2 113C330.5 110.9 329.5 100 329.8 92.6004C330 85.0004 333.4 73.9004 342.2 72.4004C347.5 71.5004 345.9 77.6004 343.4 80.1004C342 81.6004 340.4 82.8004 338.5 83.5004C332.2 85.8004 328.6 80.3004 328.3 74.7004C328 67.1004 331.6 59.4004 336.1 53.5004C337.4 52.1004 334.8 50.6004 333.6 52.1004Z" fill="#F0F0F0"/>
<path d="M352.6 382.3C352.6 381.8 350.8 328.3 342.1 319.8C333.6 311.6 323.9 319.5 323.5 319.8L322.6 318.8C322.7 318.7 333.7 309.8 343 318.8C352.1 327.6 353.9 380 353.9 382.2L352.6 382.3Z" fill="#E0E0E0"/>
<path d="M353.3 392.8C353.2 392.2 347.4 328.6 370.6 301.9L371.6 302.8C348.8 329 354.6 392 354.7 392.7L353.3 392.8Z" fill="#E0E0E0"/>
<path d="M352.5 386.1L351.1 386C351.1 385.3 355.6 313.7 338.6 298L339.5 297C357.1 313.1 352.7 383.1 352.5 386.1Z" fill="#E0E0E0"/>
<path d="M354.7 386H353.3C353.3 384 353.9 337.7 367 330.1C369.9 328.4 372.8 328.1 375.5 329.3C383.5 332.6 387.4 346.8 387.6 347.4L386.3 347.8C386.3 347.7 382.4 333.7 375 330.6C372.7 329.6 370.2 329.9 367.7 331.4C355.3 338.5 354.7 385.6 354.7 386Z" fill="#E0E0E0"/>
<path d="M349.6 386.1L348.2 386C348.2 385.6 350.2 349.4 340.4 336.6C338 333.5 335.5 332 332.7 332.2C326.3 332.6 320.9 342 320.9 342.1L319.7 341.4C319.9 341 325.5 331.3 332.6 330.8C335.8 330.6 338.8 332.2 341.4 335.7C351.6 348.9 349.7 384.5 349.6 386.1Z" fill="#E0E0E0"/>
<path d="M351.7 391C351.4 387.5 345.3 304.6 356.1 290L357.2 290.8C346.7 305 353 390 353.1 390.8L351.7 391Z" fill="#E0E0E0"/>
<path d="M378.5 337.7C378.5 337.7 372 340.1 374 345.7C375.9 351.3 396.4 360.6 396.4 360.6C396.4 360.6 405 352.7 397.1 340C389.2 327.2 378.7 333.7 378.5 337.7Z" fill="#EBEBEB"/>
<path d="M350.4 327C350.4 327 357.3 326.7 357.7 332.7C358.1 338.6 342.8 355.1 342.8 355.1C342.8 355.1 331.9 351.1 334.2 336.3C336.5 321.4 348.7 323.3 350.4 327Z" fill="#EBEBEB"/>
<path d="M344.5 298.5C344.5 298.5 349.1 298 348.7 295.2C348.3 292.4 330.8 285.2 320.5 296.8C320.5 296.8 327.1 308.2 336.7 308.3C346.3 308.5 344.5 298.5 344.5 298.5Z" fill="#EBEBEB"/>
<path d="M353.1 291.7C353.1 291.7 348.9 293.7 347.8 291.1C346.6 288.5 357.7 273.2 372.6 277.6C372.6 277.6 373 290.7 365 295.9C356.9 301.1 353.1 291.7 353.1 291.7Z" fill="#EBEBEB"/>
<path d="M331.4 335.4C331.4 335.4 334.6 332.8 331.1 331.6C327.7 330.3 310.9 330.7 310.7 347.3C310.7 347.3 330.3 350.6 332.7 344.2C335.1 337.9 331.4 335.4 331.4 335.4Z" fill="#EBEBEB"/>
<path d="M371.2 298.1C371.2 298.1 368 295.5 371.5 294.3C374.9 293 391.7 293.4 391.9 310C391.9 310 372.3 313.3 369.9 306.9C367.5 300.6 371.2 298.1 371.2 298.1Z" fill="#EBEBEB"/>
<path d="M360.9 311.5C360.9 311.5 360.6 308.4 363.1 309.6C365.6 310.8 374.4 320.3 365.3 329.2C365.3 329.2 353.1 320.1 355.3 315.4C357.5 310.8 360.9 311.5 360.9 311.5Z" fill="#EBEBEB"/>
<path d="M328.5 315.9C328.5 315.9 330.4 313.4 327.6 313.1C324.8 312.8 312.4 316.1 315.3 328.5C315.3 328.5 330.5 327.4 331.1 322.2C331.8 317.1 328.5 315.9 328.5 315.9Z" fill="#EBEBEB"/>
<path d="M367.4 410H336.9L328.7 372.5H374.8L367.4 410Z" fill="#F0F0F0"/>
<path d="M377.5 372H326V382.8H377.5V372Z" fill="#E6E6E6"/>
<path d="M200 431C274.393 431 334.7 427.105 334.7 422.3C334.7 417.495 274.393 413.6 200 413.6C125.607 413.6 65.3 417.495 65.3 422.3C65.3 427.105 125.607 431 200 431Z" fill="#F5F5F5"/>
<path d="M82.4 256C65.8 275.4 61 304.1 70.3 327.9C80.6 318.7 87.9 304.6 88.4 292.3C88.8 280 85.6 267.9 82.4 256Z" fill="#407BFF"/>
<path d="M79.5 330.1C73.9 338.7 71.2 349.2 72 359.5C81 356.4 88.9 346.3 93.6 338C98.3 329.8 101 320.5 103.4 311.4C93.6 314.8 85.1 321.5 79.5 330.1Z" fill="#407BFF"/>
<path d="M77.4 289.9C68.9 320.8 65.8 352.8 68.2 384.7C68.2 385.2 69 385.2 69 384.7C66.6 352.8 69.7 320.9 78.2 290.1C78.2 289.6 77.5 289.4 77.4 289.9Z" fill="#263238"/>
<path d="M68.4 367.7C75.3 351.5 84.2 336.3 94.5 322.1C94.8 321.7 94.1 321.3 93.9 321.7C83.6 336 74.7 351.1 67.8 367.3C67.6 367.8 68.2 368.2 68.4 367.7Z" fill="#263238"/>
<path d="M58.8 343.6C63.5 350.8 65.7 359.5 65.1 368.1C57.6 365.5 51 357.1 47.1 350.2C43.2 343.3 40.9 335.6 38.9 328C47 330.8 54.1 336.4 58.8 343.6Z" fill="#407BFF"/>
<path d="M68.2 373.7C62.6 360.4 55.2001 348.2 46.8001 336.6C46.5001 336.2 45.9 336.6 46.2 337C54.6 348.6 62.0001 360.9 67.6 374.1C67.7 374.5 68.4 374.1 68.2 373.7Z" fill="#263238"/>
<path d="M68.5 378.2C79.1 367.4 89.8 356.7 100.4 345.9C100.7 345.6 100.2 345 99.9 345.4C89.3 356.2 78.6 366.9 68 377.7C67.6 378 68.2 378.5 68.5 378.2Z" fill="#263238"/>
<path d="M100.7 340.8C91.5 349.6 83.2 359.3 75.8 369.6H77.5C84.5 369.3 91.2001 365.8 95.6001 360.4C100 355.1 101.9 347.7 100.7 340.8Z" fill="#407BFF"/>
<path d="M57.4 319.8C61.3 326.2 65 332.8 68.5 339.5C68.7 339.9 69.4 339.5 69.1 339.1C65.6 332.4 61.9 325.9 58 319.4C57.8 319 57.1 319.4 57.4 319.8Z" fill="#263238"/>
<path d="M47.9 287.3C46.4 294 44.9 302.8 44.9 309.8C44.9 316.8 47 323.7 51 328.4C55 333.1 63 335.2 66.3 332.5L47.9 287.3Z" fill="#407BFF"/>
<path d="M87.7 381.3H47.7V388.7H87.7V381.3Z" fill="#263238"/>
<path d="M81.2 415.1H56.4L51.9 387H84.8L81.2 415.1Z" fill="#263238"/>
<path opacity="0.2" d="M52.2 388.8H84.6L84.2 392H52.7L52.2 388.8Z" fill="black"/>
<path d="M158 62L157 67.9C157 67.9 160.1 68.1 162.7 69.3" stroke="#263238" stroke-width="0.5" stroke-miterlimit="10" stroke-linecap="round" stroke-linejoin="round"/>
<path d="M164.1 58.1001L163.1 64.0001C163.1 64.0001 166.2 64.2001 168.8 65.4001" stroke="#263238" stroke-width="0.5" stroke-miterlimit="10" stroke-linecap="round" stroke-linejoin="round"/>
<path d="M152.4 66.4004L151.4 72.3004C151.4 72.3004 155.2 72.2004 157.9 73.4004" stroke="#263238" stroke-width="0.5" stroke-miterlimit="10" stroke-linecap="round" stroke-linejoin="round"/>
<path d="M146 72.4004L146.5 78.4004C146.5 78.4004 150.9 77.3004 153.5 78.5004" stroke="#263238" stroke-width="0.5" stroke-miterlimit="10" stroke-linecap="round" stroke-linejoin="round"/>
<path d="M141.8 79.3003L142.3 85.3003C142.3 85.3003 146.7 83.1003 149.3 84.3003" stroke="#263238" stroke-width="0.5" stroke-miterlimit="10" stroke-linecap="round" stroke-linejoin="round"/>
<path d="M137.1 97.7004C141 87.7004 145.2 77.3004 153.5 70.6004C157.7 67.1004 162.8 63.7004 167.8 61.4004" stroke="#263238" stroke-width="0.5" stroke-miterlimit="10" stroke-linecap="round" stroke-linejoin="round"/>
<path d="M169.3 66.9C170 66.6 170.3 65.7 170 65C169.7 64.3 168.8 63.9 168.1 64.3C167.4 64.6 167 65.5 167.4 66.2C167.8 66.9 168.6 67.2 169.3 66.9Z" fill="#263238"/>
<path d="M162.6 58.0002C162.9 58.7002 163.8 59.0002 164.5 58.7002C165.2 58.4002 165.5 57.5002 165.2 56.8002C164.9 56.1002 164 55.8002 163.3 56.1002C162.6 56.4002 162.3 57.3002 162.6 58.0002Z" fill="#263238"/>
<path d="M169.8 62C170.5 61.7 170.8 60.8 170.5 60.1C170.2 59.4 169.3 59.1 168.6 59.4C167.9 59.7 167.6 60.6 167.9 61.3C168.2 61.9 169.1 62.3 169.8 62Z" fill="#263238"/>
<path d="M163.9 71.1001C164.6 70.8001 164.9 69.9001 164.6 69.2001C164.3 68.5001 163.4 68.2001 162.7 68.5001C162 68.8001 161.7 69.7001 162 70.4001C162.4 71.1001 163.2 71.5001 163.9 71.1001Z" fill="#263238"/>
<path d="M157.2 62.2004C157.5 62.9004 158.4 63.2004 159.1 62.9004C159.8 62.6004 160.1 61.7004 159.8 61.0004C159.5 60.3004 158.6 60.0004 157.9 60.3004C157.2 60.7004 156.9 61.5004 157.2 62.2004Z" fill="#263238"/>
<path d="M159.5 74.2004C160.1 73.8004 160.3 72.9004 159.9 72.2004C159.5 71.6004 158.6 71.4004 157.9 71.8004C157.3 72.2004 157.1 73.1004 157.5 73.8004C158 74.5004 158.9 74.7004 159.5 74.2004Z" fill="#263238"/>
<path d="M153.2 67.1003C153.8 66.6003 154 65.8003 153.6 65.1003C153.2 64.5003 152.3 64.3003 151.6 64.7003C151 65.1003 150.8 66.0003 151.2 66.7003C151.7 67.4003 152.6 67.5003 153.2 67.1003Z" fill="#263238"/>
<path d="M152.6 79.1C153.2 79.6 154.1 79.6 154.6 79C155.1 78.4 155.1 77.5 154.5 77C154.5 77 154.5 77 154.4 76.9C153.8 76.4 152.9 76.4 152.4 77C151.9 77.6 151.9 78.5 152.6 79.1C152.5 79 152.5 79 152.6 79.1Z" fill="#263238"/>
<path d="M146 73.6003C146.773 73.6003 147.4 72.9735 147.4 72.2003C147.4 71.4271 146.773 70.8003 146 70.8003C145.227 70.8003 144.6 71.4271 144.6 72.2003C144.6 72.9735 145.227 73.6003 146 73.6003Z" fill="#263238"/>
<path d="M150.9 84.8003C151.4 84.2003 151.3 83.3003 150.6 82.8003C150 82.3003 149.1 82.4003 148.6 83.1003C148.1 83.7003 148.2 84.6003 148.9 85.1003C149.5 85.5003 150.4 85.4003 150.9 84.8003Z" fill="#263238"/>
<path d="M142.8 79.9004C143.3 79.3004 143.2 78.4004 142.5 77.9004C141.9 77.4004 141 77.5004 140.5 78.2004C140 78.8004 140.1 79.7004 140.8 80.2004C141.4 80.6004 142.3 80.5004 142.8 79.9004Z" fill="#263238"/>
<path d="M67.9 102.7L71.1 106.7C71.1 106.7 68.9 108.2 67.3 110.2" stroke="#263238" stroke-width="0.5" stroke-miterlimit="10" stroke-linecap="round" stroke-linejoin="round"/>
<path d="M61.6 102.3L64.8 106.3C64.8 106.3 62.6 107.8 61 109.8" stroke="#263238" stroke-width="0.5" stroke-miterlimit="10" stroke-linecap="round" stroke-linejoin="round"/>
<path d="M74.1 103.8L77.3 107.8C77.3 107.8 74.3 109.3 72.8 111.3" stroke="#263238" stroke-width="0.5" stroke-miterlimit="10" stroke-linecap="round" stroke-linejoin="round"/>
<path d="M81.4 105.6L83.6001 110.4C83.6001 110.4 79.8 111.4 78.3 113.4" stroke="#263238" stroke-width="0.5" stroke-miterlimit="10" stroke-linecap="round" stroke-linejoin="round"/>
<path d="M87.5 109.1L89.7 113.9C89.7 113.9 85.5 114.1 83.9 116.1" stroke="#263238" stroke-width="0.5" stroke-miterlimit="10" stroke-linecap="round" stroke-linejoin="round"/>
<path d="M98.8 121.2C91.6 115.2 84.1 109.1 74.9 107.4C70.2 106.5 64.9 106 60.1 106.4" stroke="#263238" stroke-width="0.5" stroke-miterlimit="10" stroke-linecap="round" stroke-linejoin="round"/>
<path d="M62.5 109.9C62.4 109.2 61.8 108.7 61.2 108.8C60.5 108.9 60 109.5 60.1 110.1C60.2 110.8 60.8 111.3 61.4 111.2C62 111.2 62.5 110.6 62.5 109.9Z" fill="#263238"/>
<path d="M62.7 101.6C62.6 100.9 62 100.4 61.4 100.5C60.7 100.6 60.2 101.2 60.3 101.8C60.4 102.5 61 103 61.6 102.9C62.3 102.9 62.8 102.3 62.7 101.6Z" fill="#263238"/>
<path d="M60 106.3C59.9 105.6 59.3 105.1 58.7 105.2C58 105.3 57.5 105.9 57.6 106.5C57.7 107.2 58.3 107.7 58.9 107.6C59.6 107.6 60.1 107 60 106.3Z" fill="#263238"/>
<path d="M68.4 110.9C68.3 110.2 67.7 109.7 67.1 109.8C66.4 109.9 65.9 110.5 66 111.1C66.1 111.8 66.7 112.3 67.3 112.2C67.9 112.2 68.4 111.6 68.4 110.9Z" fill="#263238"/>
<path d="M68.6 102.6C68.5 101.9 67.9 101.4 67.3 101.5C66.6 101.6 66.1 102.2 66.2 102.8C66.3 103.5 66.9 104 67.5 103.9C68.2 103.9 68.7 103.3 68.6 102.6Z" fill="#263238"/>
<path d="M73.3 111.6C73.4 110.9 72.9 110.3 72.2 110.2C71.5 110.1 70.9 110.6 70.8 111.3C70.7 112 71.2 112.6 71.9 112.7C72.6 112.8 73.2 112.3 73.3 111.6Z" fill="#263238"/>
<path d="M75.1 103.5C75.2 102.8 74.7 102.2 74 102.1C73.3 102 72.7 102.5 72.6 103.2C72.5 103.9 73 104.5 73.7 104.6C74.4 104.7 75 104.2 75.1 103.5Z" fill="#263238"/>
<path d="M79.3 113.4C79.5 112.7 79.2 112 78.5 111.8C77.8 111.6 77.1 111.9 76.9 112.6V112.7C76.7 113.4 77 114.1 77.7 114.3C78.3 114.5 79 114.2 79.3 113.4C79.2 113.5 79.2 113.4 79.3 113.4Z" fill="#263238"/>
<path d="M81.3 106.7C81.9628 106.7 82.5 106.163 82.5 105.5C82.5 104.837 81.9628 104.3 81.3 104.3C80.6373 104.3 80.1 104.837 80.1 105.5C80.1 106.163 80.6373 106.7 81.3 106.7Z" fill="#263238"/>
<path d="M84.5 116.5C84.8 115.9 84.5 115.1 83.9 114.9C83.3 114.6 82.5 114.9 82.3 115.5C82 116.1 82.3 116.9 82.9 117.1C83.5 117.4 84.2 117.1 84.5 116.5Z" fill="#263238"/>
<path d="M88.7 109.4C89 108.8 88.7 108 88.1 107.8C87.5 107.5 86.7 107.8 86.5 108.4C86.2 109 86.5 109.8 87.1 110C87.7 110.3 88.4 110 88.7 109.4Z" fill="#263238"/>
<path d="M127.5 84.0001C122.1 79.5001 111.1 81.8001 108.7 86.3001C106.3 90.8001 123.4 89.7001 128.3 85.6001L127.5 84.0001Z" fill="#407BFF"/>
<path d="M128.3 85.2001C128.3 85.3001 128.1 85.3001 128 85.3001C121.1 83.2001 111.1 86.7001 111 86.7001C110.9 86.7001 110.8 86.7001 110.7 86.6001C110.7 86.5001 110.7 86.4001 110.8 86.3001C110.9 86.3001 121.1 82.7001 128.1 84.9001C128.2 85.0001 128.3 85.1001 128.3 85.2001Z" fill="#263238"/>
<path d="M125.4 80.3004C132.5 78.2004 144.4 62.1004 138.4 61.6004C132.5 61.1004 123.3 70.4004 124.3 78.6004L125.4 80.3004Z" fill="#407BFF"/>
<path d="M125 80.1005C124.9 80.1005 124.8 79.9005 124.8 79.8005C127.1 71.6005 137 63.8004 137.1 63.7004C137.2 63.6004 137.4 63.6005 137.4 63.8005C137.5 63.9005 137.5 64.1005 137.3 64.1005C137.2 64.2005 127.4 71.8005 125.1 79.9005C125.3 80.0005 125.1 80.1005 125 80.1005Z" fill="#263238"/>
<path d="M131.8 90.8999C126.2 79.7999 118.9 69.8999 110 61.1999C109.7 60.8999 109.1 61.3999 109.5 61.6999C118.3 70.2999 125.6 80.1999 131.1 91.1999C131.4 91.6999 132 91.2999 131.8 90.8999Z" fill="#263238"/>
<path d="M104.2 64.0002C95 69.0002 86.3 65.0002 90.1 58.3002C93.5 52.4002 103.7 55.8002 103.6 55.3002C103.5 54.9002 92.4 44.8002 100.5 40.2002C108.6 35.6002 112.5 42.3002 111.4 52.3002C111.4 52.3002 118 40.5002 124.8 42.3002C131.6 44.1002 134 55.3002 116.8 59.6002C116.8 59.6002 131.4 59.8002 130.2 68.4002C129 77.0002 118.5 75.7002 111 65.5002C111 65.5002 115.2 80.4002 104.6 80.2002C92.6 80.2002 104.2 64.0002 104.2 64.0002Z" fill="#407BFF"/>
<path opacity="0.4" d="M104.2 64.0002C95 69.0002 86.3 65.0002 90.1 58.3002C93.5 52.4002 103.7 55.8002 103.6 55.3002C103.5 54.9002 92.4 44.8002 100.5 40.2002C108.6 35.6002 112.5 42.3002 111.4 52.3002C111.4 52.3002 118 40.5002 124.8 42.3002C131.6 44.1002 134 55.3002 116.8 59.6002C116.8 59.6002 131.4 59.8002 130.2 68.4002C129 77.0002 118.5 75.7002 111 65.5002C111 65.5002 115.2 80.4002 104.6 80.2002C92.6 80.2002 104.2 64.0002 104.2 64.0002Z" fill="white"/>
<path opacity="0.2" d="M104.8 60.7001C104.8 60.7001 95.2 64.8001 93.9 61.6001C92.7 58.3001 105.2 58.4001 105.2 58.4001C105.2 58.4001 100.1 58.1001 100.9 57.1001C101.6 56.2001 106.8 57.2001 106.5 56.9001C106.1 56.5001 101.7 53.9001 102.7 52.7001C103.7 51.6001 106.4 55.2001 106.4 55.2001C106.4 55.2001 101.2 46.4001 103.6 45.0001C106 43.7001 108.5 55.3001 108.5 55.1001C108.5 54.9001 109.1 51.7001 109.9 51.5001C110.7 51.3001 109.7 55.2001 109.7 55.2001C109.7 55.2001 113.1 51.2001 113.7 51.8001C114.3 52.4001 111.5 55.5001 111.5 55.5001C111.5 55.5001 121.5 47.3001 123.2 49.1001C124.9 50.9001 112.3 57.5001 112.3 57.5001C112.3 57.5001 117.7 56.6001 116.8 58.0001C115.9 59.4001 112.3 59.3001 112.3 59.3001C112.3 59.3001 118 60.1001 116.9 61.2001C115.9 62.2001 112.4 61.1001 112.4 61.1001C112.4 61.1001 125.6 63.9001 123.7 67.6001C121.8 71.3001 111.3 62.1001 111.3 62.1001C111.3 62.1001 114.7 65.7001 114 66.2001C113.2 66.8001 110.1 62.8001 110.1 62.8001C110.1 62.8001 111.7 69.7001 110.3 70.0001C108.8 70.3001 109.6 65.7001 109.6 65.7001C109.6 65.7001 107.7 76.1001 104.7 76.2001C101.6 76.3001 107.2 64.9001 107.2 64.9001C107.2 64.9001 104.9 67.9001 104.1 67.1001C103.3 66.3001 106.7 62.1001 106.7 62.1001C106.7 62.1001 103.2 64.2001 102.2 63.5001C101.1 62.7001 104.8 60.7001 104.8 60.7001Z" fill="white"/>
<path d="M105.3 59.7C105.3 58.3 105.9 57.9 106.8 56.7C107.7 55.5 108.7 55.5 109.6 55.8C110.5 56.1 111.2 57.1 111.8 57.8C112.4 58.5 112.7 60.7 112 61C111.2 61.2 110.6 62.1 109.7 62.6C108.8 63.1 107.1 62.9 106.7 62.2C106.3 61.4 105.4 61 105.3 59.7Z" fill="#263238"/>
<path d="M182.3 73C178 70.9 177.1 66.6 180.7 66.2C183.8 65.9 185.3 70.6 185.4 70.5C185.5 70.3 186.3 63.5 190.2 65.3C194.1 67.1 192.6 70.4 188.6 72.6C188.6 72.6 194.8 71.9 196 74.9C197.2 77.9 193.6 81.9 187.4 76.6C187.4 76.6 191.2 82.1 187.7 84C184.2 85.9 181.8 81.6 183.7 76C183.7 76 179.3 81.6 176.5 77.6C173.1 73 182.3 73 182.3 73Z" fill="#407BFF"/>
<path opacity="0.4" d="M182.3 73C178 70.9 177.1 66.6 180.7 66.2C183.8 65.9 185.3 70.6 185.4 70.5C185.5 70.3 186.3 63.5 190.2 65.3C194.1 67.1 192.6 70.4 188.6 72.6C188.6 72.6 194.8 71.9 196 74.9C197.2 77.9 193.6 81.9 187.4 76.6C187.4 76.6 191.2 82.1 187.7 84C184.2 85.9 181.8 81.6 183.7 76C183.7 76 179.3 81.6 176.5 77.6C173.1 73 182.3 73 182.3 73Z" fill="white"/>
<path opacity="0.2" d="M183.7 72.3001C183.7 72.3001 179.6 69.8001 180.5 68.5001C181.4 67.2001 184.7 71.9001 184.7 71.9001C184.7 71.9001 183.5 69.9001 184 69.9001C184.5 69.9001 185.5 72.2001 185.6 71.9001C185.6 71.7001 185.4 69.3001 186.1 69.4001C186.8 69.5001 186.2 71.5001 186.2 71.5001C186.2 71.5001 188.1 67.2001 189.3 67.7001C190.4 68.2001 186.7 72.3001 186.8 72.2001C186.9 72.2001 188.2 71.5001 188.5 71.8001C188.8 72.0001 187.1 72.7001 187.1 72.7001C187.1 72.7001 189.5 72.9001 189.4 73.3001C189.3 73.7001 187.4 73.5001 187.4 73.5001C187.4 73.5001 193.2 75.1001 192.9 76.2001C192.7 77.3001 186.8 74.4001 186.8 74.4001C186.8 74.4001 188.6 76.2001 187.8 76.2001C187 76.2001 186.1 74.9001 186.1 74.9001C186.1 74.9001 187.3 77.3001 186.6 77.1001C185.9 77.0001 185.4 75.4001 185.4 75.4001C185.4 75.4001 187.9 81.1001 186 81.4001C184.1 81.7001 184.7 75.3001 184.7 75.3001C184.7 75.3001 184.3 77.5001 183.9 77.4001C183.5 77.3001 184.1 75.0001 184.1 75.0001C184.1 75.0001 182 77.5001 181.4 77.0001C180.9 76.5001 182.8 75.6001 182.8 75.6001C182.8 75.6001 178.4 77.7001 177.5 76.6001C176.6 75.5001 182.4 74.5001 182.4 74.5001C182.4 74.5001 180.7 74.5001 180.8 73.9001C180.9 73.4001 183.4 73.5001 183.4 73.5001C183.4 73.5001 182 72.6001 182 72.0001C182 71.5001 183.7 72.3001 183.7 72.3001Z" fill="white"/>
<path d="M184.2 72.2001C184.7 71.8001 185 71.9001 185.7 72.0001C186.4 72.0001 186.7 72.4001 186.8 72.8001C186.9 73.2001 186.7 73.7001 186.6 74.2001C186.5 74.6001 185.8 75.3001 185.5 75.1001C185.2 74.9001 184.7 74.9001 184.3 74.7001C183.9 74.5001 183.5 73.8001 183.6 73.4001C183.9 73.1001 183.7 72.6001 184.2 72.2001Z" fill="#263238"/>
<path d="M85.7 141C95.2 139.8 104.6 139.8 114.1 141C114.6 141.1 114.6 140.3 114.1 140.2C104.6 139 95.2 139 85.7 140.2C85.2 140.3 85.2 141 85.7 141Z" fill="#263238"/>
<path d="M71.8 153.8C65.2 157.8 58.2 155 64.4 149.1C70.6 143.2 71.7 143.3 71.5 142.9C71.3 142.5 58.2 139.3 58.7 135C59.1 130.6 67.4 129.4 73.4 132.4C79.4 135.3 85.4 145.5 71.8 153.8Z" fill="#407BFF"/>
<path d="M85.2 145.5C80.8 159.6 69.8 165.6 67 161.3C64.2 157 74.9 147 74.9 147C74.9 147 62.6 155.6 58.4 147.8C54.2 140 64.2 133.5 73.5 138.6C73.5 138.6 58.7 129.6 61.8 124C64.9 118.6 89.4 132 85.2 145.5Z" fill="#407BFF"/>
<path opacity="0.4" d="M70 124.2C77.9 127.5 88 136.5 85.2 145.6C84.1 149.3 82.3 152.8 80 155.9C75.1 162.3 69 164.4 67 161.3C64.2 157 74.9 147 74.9 147C74.9 147 62.6 155.7 58.4 147.8C54.2 140 64.1 133.5 73.5 138.6C73.5 138.6 58.7 129.6 61.8 124C62.8 122.3 66.1 122.5 70 124.2Z" fill="white"/>
<path opacity="0.1" d="M70 124.2C77.9 127.5 88 136.5 85.2 145.6C84.1 149.3 82.3 152.8 80 155.9C77.4 158.9 75.3 159.7 74.3 158C73.1 155.7 78.2 149.9 81.2 146.7C79.7 148.1 77.7 149.6 76.8 148.7C75.2 147.1 81.3 143.4 81.3 143.4C81.3 143.4 68.6 147.7 67.8 144.1C67 140.6 80.2 140.5 80.8 140.5C80.5 140.4 73.1 137.3 73.3 135.3C73.4 133.4 81.2 138.2 81.2 138.2C81.2 138.2 67.3 127.8 70 124.2Z" fill="black"/>
<path d="M86.7 142.7C86.3 147 83.8 149.5 83.5 147.9C83.4 146.8 83.7 145.6 84.3 144.7C84.3 144.7 82.2 145.6 81.9 144.3C81.6 143 83.6 141.5 83.6 141.5C83.6 141.5 81.5 140 81.5 139.1C81.5 138.2 83.9 138.8 83.9 138.8C83.9 138.8 80.7 136.5 82 135.3C83.3 134.1 87.2 137.8 86.7 142.7Z" fill="#263238"/>
<path d="M160.7 193C154.6 195.8 145.9 211.9 151.3 211.6C156.7 211.3 163.9 201.7 161.9 194.5L160.7 193Z" fill="#407BFF"/>
<path d="M161.1 193.1C161.2 193.1 161.3 193.2 161.3 193.4C160.3 201.1 152.3 209.4 152.2 209.5C152.1 209.6 152 209.6 151.9 209.5C151.8 209.4 151.8 209.3 151.9 209.2C152 209.1 159.8 200.9 160.9 193.4C160.9 193.2 161 193.1 161.1 193.1Z" fill="#263238"/>
<path d="M177.3 215.9C184.4 216.7 187.8 222.4 182.9 224.6C178.6 226.6 174.3 220.7 174.1 221C174 221.3 176.3 231.3 169.9 230.7C163.5 230.1 164 224.8 168.6 219.6C168.6 219.6 160.3 223.6 157.1 219.9C154 216.2 157 209 168.4 213.3C168.4 213.3 160.3 207.5 164.3 203.1C168.4 198.7 173.7 203.6 173.9 212.3C173.9 212.3 177.4 202.3 183.3 206.5C190.2 211.4 177.3 215.9 177.3 215.9Z" fill="#407BFF"/>
<path opacity="0.4" d="M177.3 215.9C184.4 216.7 187.8 222.4 182.9 224.6C178.6 226.6 174.3 220.7 174.1 221C174 221.3 176.3 231.3 169.9 230.7C163.5 230.1 164 224.8 168.6 219.6C168.6 219.6 160.3 223.6 157.1 219.9C154 216.2 157 209 168.4 213.3C168.4 213.3 160.3 207.5 164.3 203.1C168.4 198.7 173.7 203.6 173.9 212.3C173.9 212.3 177.4 202.3 183.3 206.5C190.2 211.4 177.3 215.9 177.3 215.9Z" fill="white"/>
<path opacity="0.2" d="M175.6 217.5C175.6 217.5 182.6 219 182 221.3C181.4 223.6 174.4 218.7 174.4 218.7C174.4 218.7 177.1 220.9 176.3 221.1C175.5 221.3 173 218.7 173.1 219.1C173.2 219.5 174.6 222.7 173.6 222.9C172.6 223.1 172.5 220.1 172.5 220.1C172.5 220.1 171.9 227.1 170.1 226.9C168.2 226.7 171.4 219.2 171.3 219.3C171.2 219.4 169.6 220.9 169.1 220.7C168.6 220.5 170.7 218.7 170.7 218.7C170.7 218.7 167.2 219.6 167.1 219C167 218.4 169.8 217.8 169.8 217.8C169.8 217.8 160.9 218.4 160.7 216.8C160.5 215.2 170.1 216.4 170.1 216.4C170.1 216.4 166.7 214.8 167.8 214.4C168.9 214 170.8 215.4 170.8 215.4C170.8 215.4 167.9 212.7 168.9 212.5C169.9 212.3 171.4 214.3 171.4 214.3C171.4 214.3 165.1 207.6 167.6 206.2C170.1 204.8 172.4 214.2 172.4 214.2C172.4 214.2 171.9 210.9 172.5 210.8C173.2 210.8 173.3 214.3 173.3 214.3C173.3 214.3 175.1 209.8 176 210.2C177 210.6 174.7 212.9 174.7 212.9C174.7 212.9 179.8 207.8 181.6 208.9C183.4 210 175.8 214.3 175.8 214.3C175.8 214.3 178.2 213.5 178.4 214.3C178.5 215.1 175 216.1 175 216.1C175 216.1 177.8 216.3 178.1 217.1C178.5 217.8 175.6 217.5 175.6 217.5Z" fill="white"/>
<path d="M174.9 217.9C174.4 218.7 173.9 218.7 172.9 219C171.9 219.3 171.4 219 171 218.4C170.6 217.8 170.6 217 170.6 216.4C170.6 215.8 171.2 214.4 171.7 214.6C172.2 214.8 172.9 214.5 173.6 214.6C174.3 214.7 175.2 215.5 175.1 216C175 216.5 175.5 217.1 174.9 217.9Z" fill="#263238"/>
<path d="M286.9 7.90032C298.4 0.200318 314 3.40032 321.7 14.9003C329.4 26.4003 326.2 42.0003 314.7 49.7003C305.8 55.6003 294.5 55.1003 286.3 49.2003L279 50.9003L280.2 43.0003C280.1 42.9003 280 42.8003 280 42.7003C272.2 31.2003 275.3 15.6003 286.9 7.90032Z" fill="#407BFF"/>
<path d="M321.3 9.2001C316 3.0001 307.5 -0.299902 299.4 0.800098" stroke="#407BFF" stroke-width="0.5" stroke-miterlimit="10" stroke-linecap="round" stroke-linejoin="round"/>
<path d="M295.8 1.30029C294.6 1.40029 293.3 1.70029 292.2 2.30029" stroke="#407BFF" stroke-width="0.5" stroke-miterlimit="10" stroke-linecap="round" stroke-linejoin="round"/>
<path d="M291.3 108.4C294.8 106 297 101.8 297 97.5001C297 93.2001 294.8 89.1001 291.3 86.7001C283.4 81.3001 271.2 85.3001 264 78.9001C261.6 76.8001 260.2 73.8001 258.9 70.9001C257.1 67.0001 255.4 62.9001 255.2 58.6001C255.2 58.2001 255.2 57.8001 255.2 57.3001C258.9 59.6001 263.1 60.7001 267 59.3001C268 58.9001 269.1 58.4001 269.3 57.3001C265.5 58.2001 261.3 57.0001 258.5 54.3001C260.7 54.9001 263.1 54.4001 264.9 53.0001C266.7 51.6001 267.9 49.6001 268.4 47.4001C268.7 46.2001 268.8 44.8001 268.3 43.6001C267.5 41.6001 265.4 40.4001 263.3 40.2001C261.2 40.0001 259.8 40.1001 257.7 40.7001C256.6 41.0001 254.8 41.7001 253.9 42.3001C252.8 43.0001 251.9 44.2001 251.4 45.5001C249.9 44.0001 248.1 42.7001 246.2 41.8001C245.1 41.3001 244 40.9001 242.9 40.6001C237.4 39.0001 231.6 39.4001 226.3 41.3001L222.8 42.6001C215.2 47.5001 212.9 49.4001 210.8 64.3001C210 69.8001 206 75.2001 205.9 80.8001C205.9 85.5001 205.8 90.3001 206.9 95.0001C207.7 98.4001 209 101.6 210.4 104.7C213.2 110.9 216.6 116.9 221.9 121.1C223.5 122.4 225.4 123.5 227.5 123.3C230.2 123.1 232.2 120.8 233.7 118.6C235.4 115.9 236.7 112.9 236.3 109.7C240.5 116.5 246.5 122.2 253.5 126C256.7 127.7 260.1 129 263.7 129C267 129 270.2 127.8 273.3 126.5C276.2 125.2 279.5 122.8 279.1 119.6C283.2 120.6 287.7 119.3 290.6 116.3C292.6 114.1 293.7 110.2 291.3 108.4Z" fill="#263238"/>
<path d="M214.6 405.5L203.4 406L195.9 380.2L212.6 379.5L214.6 405.5Z" fill="#FFBBB5"/>
<path d="M203 405.3L215.1 401.9C215.5 401.8 216 402 216.2 402.4L220.3 411.6C220.7 412.5 220.2 413.6 219.3 413.9C219.2 413.9 219.2 414 219.1 414C214.9 415.1 212.8 415.4 207.4 416.9C204.1 417.8 194.5 422.1 189.8 422.5C185.1 422.9 184.5 418.2 186.4 417.7C192.6 415.9 197.9 411.9 201.4 406.4C201.8 405.9 202.4 405.5 203 405.3Z" fill="#263238"/>
<path d="M199.5 408.3C198.6 408.6 197.6 408.7 196.7 408.4C196.3 408.2 196 407.8 195.9 407.3C195.8 407 195.9 406.7 196.2 406.5C197.3 405.4 202.2 406.4 202.8 406.5C202.9 406.5 203 406.6 203 406.7C203 406.8 203 406.9 202.9 407C201.8 407.5 200.7 408 199.5 408.3ZM197 406.6C196.8 406.6 196.7 406.7 196.5 406.8C196.4 406.9 196.4 407 196.4 407.1C196.4 407.4 196.6 407.7 196.9 407.8C197.7 408.2 199.5 407.8 201.8 406.7C200.3 406.5 198.6 406.4 197 406.6Z" fill="#407BFF"/>
<path d="M202.8 407H202.7C201.2 406.8 198 405.2 197.9 403.9C197.9 403.6 198 403.2 198.7 402.9C199.2 402.7 199.8 402.7 200.2 402.9C201.9 403.7 202.9 406.5 203 406.6C203.1 406.7 203.1 406.8 203 406.9C202.9 406.9 202.9 407 202.8 407ZM199 403.3H198.8C198.3 403.5 198.4 403.7 198.4 403.7C198.5 404.5 200.7 405.8 202.3 406.2C201.9 405 201 404 200 403.3C199.7 403.2 199.3 403.2 199 403.3Z" fill="#407BFF"/>
<path d="M316.6 320.1L309.3 328.6L283.6 316.2L294.5 305.9L316.6 320.1Z" fill="#FFBBB5"/>
<path d="M306.6 328.1L313.3 317.4C313.5 317 314 316.9 314.4 317L323.6 321.1C324.5 321.5 324.9 322.6 324.4 323.5C324.4 323.5 324.4 323.6 324.3 323.6C321.9 327.3 320.5 328.9 317.6 333.7C315.8 336.6 312.9 342.6 310.4 346.5C307.9 350.5 303.8 348.2 304.5 346.3C307.6 337.8 306.7 333.8 306.1 329.9C306.1 329.4 306.3 328.7 306.6 328.1Z" fill="#263238"/>
<path d="M304.8 333.9H304.7C304.2 334 303.7 333.9 303.3 333.5C303 333.3 302.9 333 302.9 332.7C303.1 331.3 306.8 329.6 307.2 329.4C307.3 329.3 307.4 329.3 307.5 329.4C307.6 329.5 307.6 329.6 307.6 329.7C307 331.1 306.1 333.4 304.8 333.9ZM306.8 330.1C305.3 330.8 303.5 332 303.4 332.7C303.4 332.8 303.5 333 303.6 333.1C303.8 333.3 304.2 333.4 304.5 333.4C305.2 333.2 306.1 332 306.8 330.1Z" fill="#407BFF"/>
<path d="M307 330C305.7 330.5 303.1 330.8 302.2 330C301.9 329.7 301.8 329.2 302 328.8C302.2 328.4 302.5 328.1 302.9 328C304.5 327.5 307.2 329.3 307.3 329.3C307.4 329.4 307.4 329.4 307.4 329.5C307.4 329.6 307.3 329.7 307.3 329.7L307 330ZM303 328.6C302.8 328.7 302.6 328.8 302.5 329.1C302.4 329.4 302.5 329.6 302.5 329.6C303.1 330.1 305.3 330 306.6 329.6C305.6 329.1 304 328.3 303 328.6Z" fill="#407BFF"/>
<path d="M195.4 108.7L194.8 109.3L194 110.1C193.5 110.6 192.9 111.2 192.3 111.7C191.1 112.9 189.9 113.9 188.7 114.9C186.1 116.9 183.5 118.8 180.7 120.7C178 122.5 175.1 124.2 172.1 125.8L167.6 128.1L165.3 129.2L164.6 129.6C164.3 129.1 164 128.6 163.9 128.1C162.8 125.2 162.1 122.1 161.7 119.1C160.8 112.3 160.2 105.4 159.9 98.4999L152.7 97.8999C151.4 105.2 150.7 112.6 150.8 120C150.8 124 151.4 128 152.4 131.9C153.1 134.5 154.3 136.9 155.9 138.9C158.5 142.1 162.7 143.6 166.8 142.7C167.6 142.5 168.4 142.3 169.1 142L170.4 141.5L173 140.5C174.7 139.9 176.5 139 178.2 138.3C181.6 136.7 185 135 188.2 133C191.5 131 194.7 128.9 197.7 126.5C199.2 125.3 200.7 124 202.1 122.7C202.8 122 203.5 121.3 204.3 120.6C204.7 120.2 205 119.9 205.4 119.4C205.8 119 206.1 118.7 206.6 118L195.4 108.7ZM165.3 130.4C165.2 130.3 165.2 130.2 165.1 130.2C165.4 130.3 165.4 130.4 165.3 130.4Z" fill="#FFBBB5"/>
<path d="M206.4 99.0999C201.8 97.9999 190 113.2 190 113.2L197.2 126.8C197.2 126.8 217 115.6 216.3 109.4C215.4 103.1 213.2 100.7 206.4 99.0999Z" fill="#407BFF"/>
<path opacity="0.2" d="M203.3 104.4L204.4 122.3C200.5 125 197.1 126.9 197.1 126.9L195.6 124L203.3 104.4Z" fill="black"/>
<path d="M158.9 103.1L162.3 90L147.9 91.5C147.9 91.5 149 100.5 153.3 104.5L158.9 103.1Z" fill="#FFBBB5"/>
<path d="M200.6 103.7C199.5 110 198.5 126.1 203.1 163.4L248.6 166.2C249 148.7 249.9 134.7 259.3 101C260.2 97.9001 258.4 94.7001 255.3 93.8001C254.9 93.7001 254.5 93.6001 254.1 93.6001C250.6 93.4001 246.3 93.3001 241.8 93.4001C234.8 93.6001 227.8 94.2001 220.9 95.3001C215 96.4001 208.5 98.0001 204.8 99.0001C202.6 99.7001 200.9 101.5 200.6 103.7Z" fill="#407BFF"/>
<path d="M203.1 163.4C203.1 163.4 184.2 247.4 182.8 281.6C181.4 317.2 195.6 399.8 195.6 399.8L219.5 395.1C219.5 395.1 211.8 322.5 215.3 287.7C219.1 249.8 236.5 165.3 236.5 165.3L203.1 163.4Z" fill="#263238"/>
<path opacity="0.2" d="M221.4 186.1C208.8 207.9 215.2 249.5 218.2 265C221.6 242.2 226.8 214.4 230.7 194C229.8 182.3 227.2 176.1 221.4 186.1Z" fill="black"/>
<path d="M215.1 164.2C215.1 164.2 221.4 266.9 229.3 281.1C241.8 303.6 289.7 328 289.7 328L304.7 310.5C304.7 310.5 271.6 283 254.1 267.3C249.9 238.9 264.6 194 248.8 166.2L215.1 164.2Z" fill="#263238"/>
<path d="M223.4 41.9001C216.4 45.0001 213.5 50.8001 212.8 55.2001C212.5 61.3001 215.5 66.1001 216 72.2001L236.1 40.0001C232.3 40.0001 230.8 39.0001 223.4 41.9001Z" fill="#263238"/>
<path d="M231.7 40.3003C238.3 38.5003 243.7 43.0003 246.7 46.0003C249.9 50.0003 251.3 55.2003 250.5 60.3003C249.7 65.1003 248.6 70.8003 245.4 72.8003C243.6 73.9003 241.3 74.3003 239.3 73.6003L220 47.6003C223.3 44.3003 227.3 41.7003 231.7 40.3003Z" fill="#263238"/>
<path d="M220.9 95.4C222.6 94.5 226.7 90.4 226.8 87.8V79.1C226.8 79 226.8 78.9 226.9 78.8L233 77C234.7 75.8 236.9 76.3 238 78C238.4 78.6 238.9 78.5 238.9 79.2C238.9 79.4 238.6 80.4 238.6 80.5C237.7 86.1 237.9 90.4 240.4 93.5L225.3 104.3C219.5 98.3 219.9 96 220.9 95.4Z" fill="#FFBBB5"/>
<path opacity="0.2" d="M226.8 87.2999C226.8 87.0999 226.8 86.5999 226.8 86.2999C226.8 84.2999 226.8 81.9999 226.8 78.7999C226.8 78.6999 226.9 78.5999 226.9 78.4999L233.3 76.5999C235.1 75.3999 237.5 75.8999 238.6 77.6999C239 78.2999 238.7 78.9999 238.7 79.7999C235.5 83.7999 231.6 86.6999 226.7 88.0999C226.8 87.7999 226.8 87.5999 226.8 87.2999Z" fill="black"/>
<path d="M246.9 61.1002C244.7 72.1002 244 76.8002 237.8 81.8002C228.5 89.4002 216 84.6002 214.9 73.2002C214 63.0002 217.7 46.8002 228.7 43.6002C239.8 40.5002 249.1 50.1002 246.9 61.1002Z" fill="#FFBBB5"/>
<path d="M250 71.4003C248.5 73.6003 246.2 74.8003 244.3 75.1003C241.3 75.6003 240.3 70.6003 241.5 67.8003C242.6 65.2003 245.7 63.7003 248.4 64.6003C251.2 65.4003 251.7 69.0003 250 71.4003Z" fill="#FFBBB5"/>
<path opacity="0.2" d="M243.9 70.3001C244.1 69.2001 244.7 68.3001 245.5 67.6001C246.3 67.0001 247.4 66.7001 248.5 66.9001" stroke="black" stroke-width="0.5" stroke-miterlimit="10" stroke-linecap="round" stroke-linejoin="round"/>
<path d="M232.8 63.4C232.6 64.6 231.9 65.5 231.2 65.4C230.5 65.3 230 64.3 230.2 63.2C230.4 62 231.1 61.1 231.8 61.2C232.5 61.2 233 62.2 232.8 63.4Z" fill="#263238"/>
<path d="M222.1 62.4002C221.9 63.5002 221.2 64.4002 220.5 64.4002C219.8 64.3002 219.3 63.4002 219.5 62.2002C219.7 61.1002 220.4 60.2002 221.1 60.2002C221.8 60.3002 222.3 61.2002 222.1 62.4002Z" fill="#263238"/>
<path d="M234.6 59.4002C234.5 59.4002 234.3 59.3002 234.2 59.2002C232.7 57.4002 230.7 57.8002 230.7 57.8002C230.4 57.9002 230.1 57.7002 230.1 57.4002C230.1 57.1002 230.3 56.8002 230.6 56.7002C230.7 56.7002 233.2 56.2002 235.1 58.4002C235.3 58.6002 235.3 59.0002 235 59.2002C234.9 59.3002 234.8 59.4002 234.6 59.4002Z" fill="#263238"/>
<path d="M218 56.2C217.9 56.2 217.8 56.1 217.8 55.9C217.7 55.6 217.9 55.3 218.1 55.2C220.7 54 222.5 55.3 222.6 55.3C222.8 55.5 222.8 55.8 222.7 56C222.5 56.2 222.2 56.3 222 56.2C221.9 56.1 220.5 55.2 218.4 56.1C218.2 56.3 218.1 56.3 218 56.2Z" fill="#263238"/>
<path d="M224.1 62C224.1 62 222 66 219.8 68.5C219.4 68.9 219.6 69.6 220.1 69.9C221.4 70.5 223 70.2 223 70.2L224.1 62Z" fill="#EA7B75"/>
<path d="M232.3 61.2999L229.8 60.3999C229.9 60.4999 231.1 62.4999 232.3 61.2999Z" fill="#263238"/>
<path d="M221.4 60.2999L218.9 59.3999C218.9 59.3999 220.1 61.4999 221.4 60.2999Z" fill="#263238"/>
<path d="M223.2 73.3002C223.9 74.5002 224.8 76.8002 224.8 76.8002C225 76.8002 225.2 76.7002 225.4 76.7002C228.3 76.1002 229.5 74.8002 229.9 73.6002C230.1 72.9002 230.1 72.3002 230 71.7002C229.9 71.1002 229.7 70.7002 229.7 70.7002C228.3 72.0002 225.7 72.8002 224.2 73.1002C223.6 73.2002 223.2 73.3002 223.2 73.3002Z" fill="#263238"/>
<path d="M224.2 73.0001L224.7 74.0001C227.5 73.4001 229.3 72.6001 230 71.6001C229.9 71.0001 229.7 70.6001 229.7 70.6001C228.4 71.9001 225.7 72.7001 224.2 73.0001Z" fill="white"/>
<path d="M225.4 76.6C228.3 76 229.5 74.7 229.9 73.5C228.9 73.8 227.7 74.2 226.8 74.8C226.1 75.4 225.7 76 225.4 76.6Z" fill="#FD504E"/>
<path d="M242.7 63.1001C242.7 63.1001 237.8 54.8001 238.7 48.6001C238.7 48.6001 217.5 39.5001 216.1 59.4001C216.1 59.4001 214.3 41.7001 232.8 42.3001C251.3 42.9001 250.8 67.6001 241.1 74.5001C241.1 74.3001 245.7 68.3001 242.7 63.1001Z" fill="#263238"/>
<path d="M224.2 43.2002C221.4 45.1002 219.3 47.8002 218.1 51.0002C217.7 53.4002 220.6 55.7002 220.6 55.7002L225.4 51.2002L224.6 55.8002C231.1 56.3002 235.4 53.5002 238.5 48.9002L236.1 41.7002C236.1 41.7002 226.6 41.7002 224.2 43.2002Z" fill="#263238"/>
<path d="M230.9 89.6001H92.9V198H230.9V89.6001Z" fill="#407BFF"/>
<path opacity="0.8" d="M230.9 89.6001H92.9V198H230.9V89.6001Z" fill="white"/>
<path opacity="0.3" d="M230.9 89.6001H226.8V198H230.9V89.6001Z" fill="#407BFF"/>
<path d="M148.5 86.1003C149.9 85.2003 151 86.8003 151 86.8003C152.7 85.1003 154.1 86.5003 154.1 86.5003C154.9 85.5003 156.6 86.5003 156.6 86.5003C158.3 85.4003 159.2 86.8003 159.2 86.8003C159.2 86.8003 159.2 86.8003 159.1 85.6003C159 84.4003 160 83.1003 160.5 83.3003C160.8 83.4003 161.6 85.3003 161.8 87.1003C162.1 89.0003 161.5 89.5003 161.5 89.5003H159.6C159.6 89.5003 159.7 93.4003 158.1 93.7003C157.2 93.9003 156.8 93.3003 156.7 92.8003C156.7 93.5003 156.5 94.5003 155.4 94.8003C154 95.1003 153.8 92.2003 153.8 91.6003C153.8 92.5003 152.8 93.6003 151.7 93.3003C150.5 93.0003 151.3 89.2003 151.3 89.2003C151.3 89.2003 151 90.4003 149.8 90.6003C148.6 90.8003 148.8 89.5003 148.8 89.5003C148.8 89.5003 147.3 89.4003 147.2 89.4003C147.2 89.5003 147.1 87.0003 148.5 86.1003Z" fill="#FFBBB5"/>
<path d="M115.8 144.5C114.2 144.5 113.2 144.2 112.6 143.5C112 142.9 111.7 142 111.7 141C111.7 140.1 111.9 139.1 112.2 137.8C112.6 136.6 112.9 135.4 113.3 134.3C114 132.4 114.7 130.4 115.5 128.3C116.3 126.2 117.1 124.2 117.9 122.1C118.7 120.1 119.5 118.1 120.3 116.2C121.1 114.3 121.9 112.6 122.6 111.1C120.5 111.1 118.8 111.2 117.3 111.2C115.8 111.3 114.5 111.4 113.3 111.5C112.1 111.6 110.8 111.8 109.5 112C109.6 110.8 110.2 109.9 111.2 109.2C112.2 108.6 113.6 108.1 115.3 107.9C117 107.7 119 107.5 121.2 107.5C122.7 107.5 124.1 107.6 125.4 107.7C126.6 107.8 127.8 107.9 129 108C130.1 108.1 131.3 108.2 132.4 108.3C133.3 108.8 133.9 109.1 134.2 109.2C134.5 109.3 134.5 109.4 134.4 109.4C133.7 109.9 132.8 110.3 131.8 110.6C130.7 110.9 129.7 111 128.5 111.1C127.4 111.2 126.3 111.2 125.3 111.2C124 114.4 122.7 117.9 121.5 121.7C120.2 125.5 119 129.4 117.9 133.5C117.5 135 117.1 136.3 116.9 137.4C116.6 138.5 116.4 139.5 116.2 140.4C116 141.3 116 142.2 116 143.2C116 143.4 116 143.5 116 143.7C115.7 144 115.7 144.2 115.8 144.5Z" fill="#407BFF"/>
<path d="M129.8 142.301C129.2 142.301 128.7 141.801 128.4 140.801C128.1 139.801 128 138.601 128 137.301C128 135.901 128.3 134.201 128.8 132.201C129.3 130.201 129.9 128.101 130.8 125.901C131.6 123.701 132.5 121.501 133.5 119.401C134.5 117.301 135.5 115.401 136.6 113.701C137.7 112.001 138.7 110.601 139.6 109.601C140.5 108.601 141.4 108.101 142.1 108.101C142.7 108.101 143.2 108.401 143.5 109.101C143.8 109.801 143.9 110.501 143.9 111.201C143.9 112.101 143.7 113.101 143.3 114.301C142.9 115.501 142.4 116.801 141.7 118.201C141 119.601 140.2 120.901 139.3 122.301C138.4 123.601 137.4 124.801 136.4 125.901C135.4 127.001 134.3 127.901 133.1 128.501C132.7 129.501 132.4 130.401 132.2 131.401C132 132.401 131.8 133.301 131.7 134.201C131.6 135.101 131.5 135.901 131.5 136.701C131.5 136.901 131.5 137.101 131.5 137.301C131.5 137.501 131.5 137.701 131.6 137.801C131.8 137.301 132.1 136.501 132.5 135.601C132.9 134.701 133.3 133.801 133.8 132.801C134.3 131.801 134.9 130.801 135.6 129.901C136.3 129.001 137.1 128.301 138 127.701C138.9 127.101 139.9 126.901 140.9 126.901C141.9 126.901 142.6 127.101 143.2 127.601C143.8 128.001 144.2 128.601 144.4 129.301C144.6 130.001 144.7 130.701 144.7 131.401C144.7 132.301 144.5 133.201 144.2 134.101C143.9 135.001 143.6 135.801 143.2 136.601C142.9 137.401 142.7 138.101 142.7 138.801C142.7 139.301 142.8 139.701 143.1 140.001C143.3 140.201 143.6 140.401 144 140.401C144.7 140.401 145.5 140.101 146.4 139.401C147.3 138.701 148.2 137.801 149.1 136.701C150 135.601 150.7 134.401 151.4 133.001L152.1 133.701C151.4 135.201 150.6 136.601 149.7 137.801C148.7 139.001 147.7 140.001 146.6 140.801C145.5 141.501 144.3 141.901 143.1 141.901C142 141.901 141.1 141.601 140.5 141.001C139.9 140.401 139.6 139.701 139.6 138.801C139.6 138.201 139.7 137.501 140 136.701C140.2 135.901 140.5 135.101 140.7 134.301C140.9 133.501 141 132.801 141 132.101C141 131.401 140.8 130.901 140.5 130.501C140.2 130.201 139.8 130.001 139.3 130.001C138.5 130.001 137.9 130.301 137.2 130.901C136.6 131.501 136 132.301 135.5 133.201C135 134.101 134.5 135.101 134.1 136.201C133.7 137.201 133.2 138.301 132.8 139.201C132.4 140.201 131.9 140.901 131.5 141.501C130.9 142.001 130.4 142.301 129.8 142.301ZM133.9 125.901C134.7 125.201 135.5 124.401 136.2 123.401C137 122.401 137.7 121.401 138.3 120.301C139 119.201 139.5 118.101 140 117.101C140.5 116.101 140.9 115.101 141.2 114.301C141.5 113.501 141.7 112.801 141.7 112.401C141.7 112.301 141.7 112.301 141.7 112.301C141.7 112.301 141.7 112.301 141.6 112.301C141.4 112.301 141 112.701 140.4 113.501C139.8 114.301 139.1 115.301 138.3 116.601C137.5 117.901 136.7 119.401 135.9 121.001C135.2 122.501 134.5 124.101 133.9 125.901Z" fill="#407BFF"/>
<path d="M152.4 142.8C151.4 142.8 150.6 142.5 149.9 141.8C149.2 141.1 148.8 140.2 148.8 138.8C148.8 137.7 149.1 136.5 149.6 135.3C150.1 134.1 150.8 132.8 151.6 131.6C152.5 130.4 153.4 129.3 154.5 128.3C155.6 127.3 156.8 126.5 158 125.9C159.2 125.3 160.5 125 161.7 125C163 125 164.1 125.3 164.9 126C165.8 126.7 166.2 127.5 166.2 128.6C166.2 129.4 165.9 130 165.4 130.3C164.9 130.6 164.2 130.7 163.5 130.6C163.6 130.4 163.6 130.1 163.7 129.8C163.7 129.5 163.8 129.2 163.8 129C163.8 128.4 163.7 127.8 163.4 127.3C163.1 126.8 162.6 126.6 161.8 126.6C160.9 126.6 160.1 126.9 159.2 127.5C158.3 128.1 157.5 128.8 156.6 129.8C155.8 130.7 155 131.8 154.4 132.9C153.8 134 153.2 135.1 152.9 136.2C152.5 137.3 152.3 138.3 152.3 139.1C152.3 140.1 152.7 140.7 153.4 140.7C154.1 140.7 154.9 140.4 155.7 139.7C156.5 139 157.4 138.2 158.3 137.2C159.2 136.2 160 135.1 160.8 134C161.6 132.9 162.3 132 162.9 131.2C163 131 163.1 131 163.2 131C163.4 131 163.6 131.1 163.9 131.2C164.2 131.3 164.5 131.5 164.8 131.6C165.1 131.8 165.2 132 165.2 132.3C165.2 132.6 165.1 133 164.8 133.5C164.5 134 164.2 134.5 163.9 135.1C163.6 135.7 163.3 136.3 163 136.8C162.7 137.4 162.6 137.9 162.6 138.5C162.6 138.9 162.7 139.3 162.9 139.7C163.1 140.1 163.5 140.3 164 140.3C164.8 140.3 165.8 139.8 167.1 138.7C168.4 137.6 169.8 135.8 171.2 133.3L171.9 134C171.2 135.6 170.3 137.1 169.3 138.3C168.3 139.5 167.2 140.5 166.1 141.2C165 141.9 163.8 142.3 162.7 142.3C161.5 142.3 160.6 141.9 160 141.2C159.4 140.5 159.1 139.6 159.1 138.8C159.1 138.7 159.1 138.6 159.1 138.5C159.1 138.4 159.1 138.3 159.1 138.2C157.8 139.7 156.7 141 155.7 141.8C154.7 142.4 153.6 142.9 152.4 142.8Z" fill="#407BFF"/>
<path d="M185.3 141.801C184.2 141.801 183.3 141.501 182.7 140.901C182.1 140.301 181.8 139.601 181.8 138.701C181.8 138.101 181.9 137.401 182.1 136.701C182.3 136.001 182.5 135.301 182.8 134.601C183 133.901 183.1 133.201 183.1 132.501C183.1 131.801 182.9 131.301 182.6 131.001C182.3 130.701 181.9 130.601 181.4 130.601C180.5 130.601 179.5 131.001 178.6 131.701C177.6 132.501 176.7 133.401 175.8 134.501C174.9 135.601 174 136.801 173.2 138.101C172.4 139.301 171.7 140.501 171.1 141.401C170.6 141.401 170 141.301 169.5 141.101C169 140.901 168.6 140.601 168.3 140.101C168.3 139.901 168.5 139.501 168.8 138.701C169.1 137.901 169.5 137.001 169.9 135.901C170.3 134.801 170.7 133.601 171 132.501C171.3 131.301 171.5 130.201 171.5 129.201C171.7 129.001 172 128.801 172.5 128.501C172.9 128.301 173.4 128.101 173.8 128.101C174.8 128.101 175.3 128.501 175.3 129.401C175.3 129.801 175.2 130.401 175 131.301C174.8 132.201 174.6 133.101 174.3 134.101C175.1 133.001 176 131.901 177 130.801C178 129.801 179 128.901 180.1 128.201C181.2 127.501 182.3 127.201 183.3 127.201C184.5 127.201 185.5 127.601 186.1 128.501C186.7 129.401 187 130.301 187 131.401C187 132.301 186.8 133.201 186.5 134.001C186.2 134.801 185.9 135.601 185.6 136.301C185.3 137.001 185.2 137.701 185.2 138.401C185.2 138.901 185.3 139.301 185.5 139.501C185.7 139.701 186 139.801 186.3 139.801C187 139.801 187.8 139.501 188.6 138.701C189.4 138.001 190.1 137.101 190.9 136.001C191.6 134.901 192.3 133.801 192.8 132.701L193.5 133.301C192.9 134.801 192.1 136.101 191.3 137.401C190.5 138.601 189.6 139.601 188.6 140.301C187.6 141.401 186.5 141.801 185.3 141.801Z" fill="#407BFF"/>
<path d="M205.8 142.7C204.9 142.7 204.1 142.4 203.4 141.8C202.7 141.2 202.2 140.4 201.8 139.5C201.4 138.6 201.1 137.7 200.9 136.7C200.7 135.8 200.6 134.9 200.6 134.2C201 134.1 201.5 134 202.2 133.8C202.8 133.6 203.5 133.4 204.2 133.1C204.9 132.8 205.4 132.4 205.9 131.9C206.4 131.4 206.6 130.8 206.6 130.1C206.6 129.5 206.4 129.1 206 128.7C205.6 128.3 205.1 128.2 204.5 128.2C203.6 128.2 202.8 128.5 202 129.1C201.2 129.7 200.5 130.5 199.8 131.4C199.1 132.4 198.5 133.4 198 134.5C197.5 135.6 197 136.7 196.6 137.7C196.2 138.7 195.9 139.6 195.6 140.3C195.3 141.1 195 141.6 194.7 141.9C194.4 142.2 194 142.3 193.4 142.3C193.1 142.3 192.8 142.2 192.5 142C192.2 141.8 192 141.4 191.9 140.8C191.8 140.3 191.7 139.5 191.7 138.6C191.7 136.8 192 134.9 192.5 132.7C193 130.5 193.7 128.3 194.6 126C195.5 123.7 196.4 121.5 197.5 119.4C198.5 117.3 199.6 115.4 200.7 113.8C201.8 112.1 202.7 110.8 203.7 109.8C204.6 108.8 205.4 108.3 205.9 108.3C206.4 108.3 206.8 108.6 207.1 109.2C207.4 109.8 207.6 110.6 207.6 111.5C207.6 112.5 207.4 113.7 206.9 115C206.4 116.3 205.8 117.6 204.9 118.8C204.1 120.1 203.1 121.3 201.9 122.5C200.8 123.7 199.5 124.6 198.1 125.4C197.2 127.6 196.5 129.7 196 131.7C195.5 133.8 195.2 135.6 195.1 137.1C195.6 135.9 196.2 134.6 196.9 133.2C197.6 131.8 198.4 130.6 199.3 129.4C200.2 128.2 201.1 127.2 202.1 126.5C203.1 125.8 204.2 125.4 205.3 125.4C206.5 125.4 207.5 125.8 208.4 126.6C209.3 127.4 209.7 128.5 209.7 129.7C209.7 130.6 209.4 131.4 208.9 132.1C208.4 132.8 207.8 133.3 207.1 133.8C206.4 134.2 205.7 134.5 204.9 134.7C204.2 134.9 203.6 135 203.1 135C203.2 135.4 203.3 135.9 203.4 136.5C203.5 137.1 203.8 137.7 204.1 138.4C204.4 139 204.7 139.6 205.2 140C205.6 140.4 206.1 140.6 206.7 140.6C207.5 140.6 208.3 140.3 209.1 139.6C209.9 138.9 210.7 138 211.4 136.9C212.2 135.8 212.9 134.5 213.5 133.1L214 133.8C213.5 135.3 212.8 136.7 211.9 138.1C211 139.5 210 140.6 208.9 141.4C208 142.3 206.9 142.7 205.8 142.7ZM199.3 122.9C200.3 122 201.3 121 202.3 119.8C203.3 118.6 204.1 117.4 204.7 116.1C205.3 114.8 205.7 113.7 205.7 112.7C205.7 112.6 205.7 112.5 205.7 112.5C205.4 112.6 204.9 113.1 204.2 114C203.5 115 202.7 116.2 201.9 117.8C201 119.3 200.2 121 199.3 122.9Z" fill="#407BFF"/>
<path d="M133.3 185C132.4 185 131.5 184.7 130.7 184.1C129.9 183.5 129.6 182.7 129.6 181.5C129.6 180.3 130 179.2 130.6 178.3C131.3 177.3 132.2 176.5 133.3 175.7C134.4 174.9 135.6 174.2 136.9 173.5C138.2 172.8 139.5 172.2 140.8 171.5C141.3 170.3 141.8 168.9 142.3 167.2C142.8 165.5 143.3 163.8 143.7 162.2C142.5 163.9 141.3 165.4 139.9 166.7C138.6 168 137.1 168.6 135.5 168.6C134.8 168.6 134.1 168.5 133.4 168.2C132.7 167.9 132.1 167.4 131.6 166.7C131.1 166 130.9 165.1 130.9 164C130.9 163 131.1 161.8 131.5 160.4C131.9 159 132.3 157.7 132.9 156.3C133.5 155 134 153.9 134.6 153C135.2 152.1 135.7 151.7 136.2 151.7C136.4 151.7 136.7 151.8 137.1 151.9C137.5 152.1 137.9 152.3 138.3 152.5C138.7 152.8 138.9 153 139 153.3C138.7 153.7 138.3 154.4 137.9 155.3C137.5 156.2 137.1 157.1 136.7 158.2C136.3 159.3 136 160.3 135.8 161.3C135.5 162.3 135.4 163.2 135.4 163.9C135.4 164.5 135.5 165 135.8 165.4C136 165.8 136.5 166 137.2 166C138 166 138.8 165.7 139.7 165C140.6 164.3 141.5 163.5 142.3 162.4C143.2 161.3 143.9 160.2 144.6 159.1C144.7 158.8 144.8 158.3 144.9 157.8C145 157.3 145.1 156.8 145.2 156.2C145.4 155.6 145.7 155 146.1 154.4C146.6 153.8 147.2 153.5 148.1 153.5C148.4 153.5 148.6 153.5 148.9 153.6C149.1 153.6 149.4 153.7 149.8 153.8C149.8 154.4 149.6 155.5 149.2 157.1C148.8 158.7 148.3 160.6 147.6 162.8C146.9 165 146.2 167.1 145.4 169.3C147.1 168.7 148.7 167.6 150.4 166.1C152.1 164.6 153.5 162.5 154.5 159.8L155.4 160.5C154.8 162.4 154 164 152.8 165.4C151.6 166.8 150.4 167.9 148.9 168.9C147.5 169.9 146 170.6 144.6 171.3C143.6 173.7 142.5 176 141.3 178.1C140.1 180.2 138.9 181.8 137.6 183.1C136.1 184.4 134.8 185 133.3 185ZM132.9 183C133.6 183 134.6 182.3 135.9 180.8C137.2 179.3 138.5 176.9 139.9 173.7C138.6 174.4 137.3 175.1 136.1 175.9C134.9 176.7 133.8 177.6 133 178.4C132.2 179.3 131.8 180.3 131.7 181.3C131.7 181.6 131.8 182 132 182.4C132.1 182.8 132.4 183 132.9 183Z" fill="#407BFF"/>
<path d="M156.9 171.1C155.2 171.1 154.1 170.5 153.5 169.5C152.9 168.4 152.6 167.2 152.6 165.9C152.6 164.7 152.8 163.5 153.2 162.2C153.6 161 154.1 159.8 154.7 158.7C155.3 157.6 156.1 156.7 156.9 156.1C157.7 155.4 158.5 155.1 159.3 155.1C159.5 155.1 159.8 155.2 160.1 155.2C160.4 155.3 160.7 155.4 160.8 155.6C160.4 156 159.9 156.7 159.5 157.5C159 158.3 158.6 159.2 158.2 160.2C157.8 161.2 157.5 162.1 157.2 163.1C156.9 164.1 156.8 164.9 156.8 165.7C156.8 166.6 156.9 167.2 157.2 167.7C157.5 168.2 158 168.4 158.7 168.4C159.5 168.4 160.3 168 161.4 167.2C162.4 166.4 163.4 165.4 164.4 164.3C163.2 163.3 162.4 162.1 161.9 160.8C161.4 159.5 161.1 157.9 161.1 156.3C161.1 155.4 161.3 154.4 161.7 153.3C162.1 152.3 162.8 151.4 163.6 150.7C164.5 150 165.6 149.6 167 149.6C168.6 149.6 169.7 150.1 170.3 150.9C170.9 151.8 171.2 152.8 171.2 154.1C171.2 155.5 170.8 157.1 170.1 158.8C169.4 160.5 168.5 162.2 167.5 163.8C168 164.1 168.6 164.3 169.2 164.3C169.8 164.3 170.4 164.2 171.2 163.9C172 163.6 172.8 163.2 173.5 162.6C174.2 162 174.8 161.2 175.3 160.2L176.2 160.9C175.4 162.7 174.3 164.1 172.9 164.9C171.5 165.7 170.2 166.2 168.9 166.1C168.4 166.1 167.9 166 167.4 166C166.9 165.9 166.5 165.8 166 165.6C164.7 167.2 163.3 168.5 161.7 169.6C160.1 170.6 158.5 171.1 156.9 171.1ZM165.6 162.6C166.5 161.3 167.3 159.9 168 158.4C168.6 156.9 168.9 155.5 169 154.2C169 153.3 168.9 152.6 168.6 152.1C168.3 151.7 167.9 151.4 167.4 151.4C166.6 151.4 165.9 151.9 165.1 152.9C164.3 153.9 164 155.2 164 156.8C164 157.7 164.1 158.7 164.4 159.8C164.6 161 165 161.9 165.6 162.6Z" fill="#407BFF"/>
<path d="M178.2 171.1C176.9 171.1 175.9 170.5 175.1 169.3C174.3 168.1 173.9 166.8 173.9 165.2C173.9 164.1 174.1 162.9 174.5 161.5C174.9 160.1 175.3 158.7 175.8 157.3C176.3 155.9 176.9 154.8 177.5 153.9C178.1 153 178.6 152.6 179.1 152.6C179.4 152.6 179.7 152.7 180.3 153C180.8 153.3 181.2 153.6 181.6 154C181.2 154.6 180.7 155.5 180.1 156.8C179.5 158.1 179 159.4 178.5 160.9C178 162.3 177.8 163.7 177.8 164.9C177.8 165.1 177.8 165.5 177.9 166.1C178 166.7 178.1 167.2 178.3 167.7C178.5 168.2 179 168.4 179.6 168.4C180.2 168.4 180.9 168.1 181.7 167.4C182.5 166.7 183.2 165.8 184 164.7C184.8 163.6 185.5 162.4 186.2 161C186.9 159.7 187.6 158.4 188.2 157.2C188.8 156 189.3 155 189.7 154.2C190 154.2 190.4 154.3 190.9 154.5C191.4 154.6 191.9 154.8 192.3 155C192.7 155.2 192.9 155.5 192.9 156C192.9 156.1 192.7 156.6 192.4 157.4C192 158.2 191.6 159.2 191.1 160.4C190.6 161.6 190.2 162.7 189.8 163.9C189.4 165.1 189.3 166.2 189.2 167.1C189.2 167.7 189.3 168.2 189.5 168.6C189.7 169 190.2 169.2 190.8 169.2C191.6 169.2 192.5 168.9 193.7 168.1C194.8 167.4 196 166.4 197.1 165C198.3 163.6 199.3 162 200.2 160.1L201 160.7C200.2 162.7 199.1 164.5 197.8 166.1C196.5 167.7 195.1 168.9 193.6 169.8C192.1 170.7 190.7 171.1 189.3 171.1C188.2 171.1 187.4 170.9 186.9 170.4C186.3 169.9 186 169.3 185.8 168.6C185.6 167.8 185.5 167.1 185.5 166.3C185.5 166 185.5 165.8 185.5 165.5C185.5 165.2 185.5 164.9 185.6 164.7C185 165.8 184.2 166.8 183.5 167.8C182.7 168.8 181.9 169.6 181.1 170.2C180.1 170.8 179.2 171.1 178.2 171.1Z" fill="#407BFF"/>
<path d="M277.5 142.5C277.5 142.2 277.4 142 277.3 141.7L277.1 141.1L276.9 140.5L276.5 139.2C276.3 138.3 276 137.5 275.7 136.6C273.6 129.8 271.2 123.2 268.6 116.6C266 110.1 261.6 104.4 258.5 98.1001L246.7 107C249.5 113.1 253.4 115.6 256.1 121.8C258.8 128.1 261.4 134.3 263.8 140.6C263.9 140.8 264 141.1 264.1 141.3C263.8 141.3 263.6 141.3 263.3 141.3C261.8 141.3 260.2 141.3 258.6 141.1C252.1 140.6 243.7 137.8 237 136.9L236.4 144.7C243 147.5 250.1 150.1 257.1 151.7C258.9 152.1 260.8 152.4 262.7 152.6C264.9 152.9 267.1 152.9 269.3 152.6C270 152.5 270.8 152.3 271.5 152.1C272.5 151.8 273.5 151.3 274.3 150.7C275.6 149.7 276.5 148.5 277.1 147C277.6 145.5 277.7 144 277.5 142.5Z" fill="#FFBBB5"/>
<path d="M256.2 94.2003C260.7 95.9003 267.1 112.6 267.1 112.6L246.7 123.5C246.7 123.5 240.8 108 243.1 102.3C245.5 96.2003 251.1 92.3003 256.2 94.2003Z" fill="#407BFF"/>
<path d="M236.8 144.6C236.8 144.6 231 145.7 230.9 143.1C230.8 140.6 230.3 134.2 230.3 134.2C230.3 134.2 223.3 134.8 223.3 134.2C223.4 132.9 227.1 132.7 227.1 132.7C227.1 132.7 222.7 132.7 222.5 131.7C222.3 130.4 228 130.7 227.7 130.8C227.4 130.9 221.9 128.7 224.6 128.5C227.3 128.3 230.3 127.9 232.1 129.4C234 130.8 238.1 138.1 238.1 138.1L236.8 144.6Z" fill="#FFBBB5"/>
<path d="M301 43C293.277 43 287 36.7228 287 29C287 21.2772 293.277 15 301 15C308.723 15 315 21.2772 315 29C315 36.7228 308.723 43 301 43ZM301 16.9535C294.358 16.9535 288.953 22.3581 288.953 29C288.953 35.6419 294.358 41.0465 301 41.0465C307.642 41.0465 313.047 35.6419 313.047 29C313.047 22.3581 307.642 16.9535 301 16.9535Z" fill="white"/>
<path d="M299.151 33.6625C298.89 33.6625 298.643 33.5584 298.46 33.376L294.775 29.6904C294.397 29.3128 294.397 28.6877 294.775 28.31C295.153 27.9323 295.778 27.9323 296.155 28.31L299.151 31.3053L305.845 24.6114C306.222 24.2337 306.847 24.2337 307.225 24.6114C307.603 24.9891 307.603 25.6142 307.225 25.9918L299.841 33.376C299.659 33.5584 299.411 33.6625 299.151 33.6625Z" fill="white"/>
</svg>
